#!OML:ASF F:\VICON\USERDATA\Patient Classification 1\PLAYGROUND\JustinFriday\JustinFriday.ASF
:FULLY-SPECIFIED
:DEGREES
3927
root 14.0153 30.6918 43.9795 -361.688 -176.878 -354.763
lowerback 8.78489 -2.02975 2.83693
upperback 3.82265 -2.82472 1.94784
thorax -0.988192 -1.56114 0.688248
lowerneck -2.0629 12.9842 -8.72895
upperneck 0.547653 18.5009 -8.7336
head 0.601554 9.41771 -1.12748
rclavicle 2.2326e-014 -1.14301e-014
rhumerus 34.9824 23.6234 -77.9159
rradius 124.558
rwrist 28.3196
rhand -31.0596 -5.14549
rfingers 7.12502
rthumb -4.3407 -35.081
lclavicle 2.2326e-014 -1.14301e-014
lhumerus 35.0079 -11.2966 78.6538
lradius 112.476
lwrist -39.0753
lhand -22.9134 -14.5899
lfingers 7.12502
lthumb 3.52669 15.3607
rfemur -13.0309 0.394641 30.0154
rtibia 43.969
rfoot -47.7196 -23.8549
rtoes -1.70355
lfemur -16.487 5.89549 -12.5142
ltibia 50.4863
lfoot -45.453 -2.74205
ltoes -7.0838
3928
root 14.0093 30.6897 43.9322 -362.005 -175.727 -354.878
lowerback 8.74642 -2.404 2.93747
upperback 3.86345 -3.31538 1.8297
thorax -0.941375 -1.80189 0.555053
lowerneck -1.97059 13.1398 -8.97808
upperneck 0.551995 18.7477 -8.83596
head 0.579542 9.55315 -1.13136
rclavicle 2.24875e-015 -1.14301e-014
rhumerus 34.6288 23.4869 -77.9881
rradius 125.101
rwrist 28.4232
rhand -30.6787 -5.45893
rfingers 7.12502
rthumb -3.9729 -35.4016
lclavicle 2.24875e-015 -1.14301e-014
lhumerus 34.9594 -11.4911 78.6534
lradius 112.226
lwrist -39.3845
lhand -23.1921 -14.6384
lfingers 7.12502
lthumb 3.25759 15.3164
rfemur -12.514 -0.445325 29.8773
rtibia 43.9166
rfoot -47.8396 -24.3472
rtoes -1.75055
lfemur -16.3134 4.91515 -12.6698
ltibia 50.6959
lfoot -45.4964 -2.81755
ltoes -8.19275
3929
root 14.0383 30.6819 43.8846 -361.927 -176.577 -354.812
lowerback 8.38296 -2.02155 2.53091
upperback 3.94229 -2.85497 1.85802
thorax -0.635218 -1.57378 0.747483
lowerneck -2.43795 13.2407 -9.20679
upperneck 0.956254 19.0213 -8.80426
head 0.759956 9.66046 -1.03619
rclavicle 1.32192e-014 -2.88238e-015
rhumerus 34.5767 23.2493 -77.9007
rradius 125.479
rwrist 28.8248
rhand -30.4754 -6.10903
rfingers 7.12502
rthumb -3.77655 -36.0553
lclavicle 1.32192e-014 -2.88238e-015
lhumerus 35.1864 -11.6453 78.7037
lradius 112.022
lwrist -39.6637
lhand -22.6744 -15.0555
lfingers 7.12502
lthumb 3.7575 14.8912
rfemur -12.3708 0.392322 30.1246
rtibia 43.8733
rfoot -47.671 -24.748
rtoes -2.18545
lfemur -16.1718 5.82101 -12.4014
ltibia 50.9181
lfoot -45.6799 -2.73559
ltoes -8.43742
3930
root 14.0455 30.6695 43.8371 -362.097 -176.015 -354.636
lowerback 8.13975 -2.15573 2.69345
upperback 4.05351 -3.04075 1.82631
thorax -0.396565 -1.6643 0.625984
lowerneck -2.92734 13.2897 -9.41787
upperneck 1.42318 19.2236 -8.67955
head 0.955471 9.72523 -0.91218
rclavicle 1.86361e-015 -2.34566e-014
rhumerus 34.4974 22.984 -77.7635
rradius 125.822
rwrist 28.8781
rhand -30.616 -6.191
rfingers 7.12502
rthumb -3.91233 -36.1348
lclavicle 1.86361e-015 -2.34566e-014
lhumerus 35.4337 -11.7584 78.8215
lradius 111.855
lwrist -40.0641
lhand -21.6391 -15.7627
lfingers 7.12502
lthumb 4.75729 14.1639
rfemur -11.9964 0.0896714 30.3862
rtibia 43.8314
rfoot -47.8185 -24.966
rtoes -1.83826
lfemur -16.0621 5.45211 -12.1336
ltibia 51.1268
lfoot -45.6585 -2.80334
ltoes -8.58064
3931
root 14.0523 30.6651 43.7902 -361.911 -175.638 -354.425
lowerback 7.6149 -2.23703 2.91582
upperback 4.01398 -3.13861 1.80596
thorax -0.161512 -1.701 0.465268
lowerneck -3.21971 13.1185 -9.42867
upperneck 1.59963 19.0742 -8.73139
head 1.06365 9.63693 -0.894136
rclavicle 2.20651e-014 -2.98177e-015
rhumerus 34.2145 22.7578 -77.6919
rradius 126.14
rwrist 28.6391
rhand -31.1925 -5.47565
rfingers 7.12502
rthumb -4.46902 -35.4085
lclavicle 2.20651e-014 -2.98177e-015
lhumerus 35.6297 -11.903 78.9444
lradius 111.77
lwrist -40.4257
lhand -20.9089 -15.9042
lfingers 7.12502
lthumb 5.46233 14.0054
rfemur -12.0153 -0.107191 30.6374
rtibia 43.7727
rfoot -47.9672 -24.7637
rtoes -1.24231
lfemur -16.3027 5.19493 -11.8855
ltibia 51.3261
lfoot -45.52 -2.9602
ltoes -8.03797
3932
root 14.0874 30.6557 43.7433 -362.196 -176.976 -354.403
lowerback 7.73418 -1.68792 2.31839
upperback 4.05054 -2.4487 1.84887
thorax -0.15647 -1.36752 0.792261
lowerneck -2.69347 13.7268 -10.0551
upperneck 1.5017 19.8908 -8.70106
head 0.890734 10.0781 -0.853142
rclavicle -5.46658e-016 -6.95746e-015
rhumerus 33.7819 22.5163 -77.6678
rradius 126.553
rwrist 29.1703
rhand -31.3384 -5.85741
rfingers 7.12502
rthumb -4.60994 -35.7872
lclavicle -5.46658e-016 -6.95746e-015
lhumerus 35.6436 -12.1534 79.1141
lradius 111.611
lwrist -40.316
lhand -20.8349 -16.003
lfingers 7.12502
lthumb 5.53379 13.9047
rfemur -11.3735 1.00036 30.8337
rtibia 43.7054
rfoot -48.0827 -24.3403
rtoes -0.789401
lfemur -15.5205 6.41027 -11.5699
ltibia 51.4901
lfoot -45.6427 -3.06083
ltoes -7.3761
3933
root 14.078 30.6629 43.6926 -362.242 -175.239 -354.341
lowerback 7.40178 -2.26658 2.71973
upperback 3.90994 -3.17526 1.7631
thorax -0.145512 -1.713 0.525952
lowerneck -2.62706 13.7091 -10.2691
upperneck 1.73084 19.9195 -8.61314
head 0.924629 10.0896 -0.796851
rclavicle 1.55052e-014 -1.98785e-016
rhumerus 33.2763 22.3777 -77.6278
rradius 126.853
rwrist 29.372
rhand -31.8338 -5.8446
rfingers 7.12502
rthumb -5.08825 -35.7635
lclavicle 1.55052e-014 -1.98785e-016
lhumerus 35.5384 -12.478 79.368
lradius 111.345
lwrist -39.8648
lhand -21.0571 -16.3936
lfingers 7.12502
lthumb 5.31919 13.5196
rfemur -11.1696 -0.334228 30.8426
rtibia 43.5834
rfoot -48.5748 -24.208
rtoes 0.234695
lfemur -15.774 4.90482 -11.6032
ltibia 51.6684
lfoot -45.4546 -3.18943
ltoes -6.68694
3934
root 14.1046 30.6579 43.6598 -362.413 -175.854 -354.284
lowerback 7.66107 -1.97831 2.36067
upperback 3.81169 -2.79425 1.76675
thorax -0.370605 -1.52641 0.71478
lowerneck -2.72232 13.447 -9.94086
upperneck 1.98644 19.6687 -8.94538
head 1.09009 9.95529 -0.90645
rclavicle 2.68111e-014 -8.74653e-015
rhumerus 32.7388 22.2 -77.6515
rradius 127.172
rwrist 29.5886
rhand -32.3752 -5.62219
rfingers 7.12502
rthumb -5.61098 -35.5279
lclavicle 2.68111e-014 -8.74653e-015
lhumerus 35.5654 -12.8076 79.598
lradius 111.103
lwrist -39.656
lhand -21.2368 -16.5
lfingers 7.12502
lthumb 5.14576 13.4175
rfemur -10.8156 0.158847 31.013
rtibia 43.486
rfoot -48.4468 -24.3111
rtoes 0.424577
lfemur -15.4474 5.54349 -11.3586
ltibia 51.8494
lfoot -45.3657 -3.28159
ltoes -6.02886
3935
root 14.117 30.6458 43.6255 -362.697 -175.476 -354.227
lowerback 7.89961 -2.03707 2.26703
upperback 3.79859 -2.86837 1.68887
thorax -0.51591 -1.56403 0.703966
lowerneck -2.74492 13.7654 -10.247
upperneck 2.36959 20.1758 -8.72316
head 1.16533 10.1905 -0.783692
rclavicle 3.13086e-015 -1.39149e-015
rhumerus 32.3457 21.9375 -77.661
rradius 127.541
rwrist 29.7695
rhand -32.7344 -5.51333
rfingers 7.12502
rthumb -5.95784 -35.4096
lclavicle 3.13086e-015 -1.39149e-015
lhumerus 35.7394 -13.1592 79.6796
lradius 110.863
lwrist -39.694
lhand -21.303 -16.5278
lfingers 7.12502
lthumb 5.08176 13.3912
rfemur -10.3459 0.00400851 31.1671
rtibia 43.3567
rfoot -48.4424 -24.8338
rtoes 0.298769
lfemur -15.2233 5.32216 -11.1915
ltibia 52.0409
lfoot -45.3236 -3.36085
ltoes -6.15119
3936
root 14.128 30.6428 43.5858 -362.793 -175.199 -354.196
lowerback 7.81602 -2.06171 2.19371
upperback 3.80771 -2.90418 1.60882
thorax -0.461641 -1.57917 0.661486
lowerneck -2.85102 13.7782 -10.5071
upperneck 2.44011 20.2299 -8.58914
head 1.16574 10.2144 -0.703434
rclavicle 2.05742e-014 0
rhumerus 32.0962 21.6476 -77.6509
rradius 127.968
rwrist 29.6927
rhand -32.9953 -5.20836
rfingers 7.12502
rthumb -6.20968 -35.0973
lclavicle 2.05742e-014 0
lhumerus 35.9841 -13.4816 79.7835
lradius 110.609
lwrist -39.9211
lhand -21.0214 -16.7589
lfingers 7.12502
lthumb 5.35373 13.1535
rfemur -10.0724 -0.111803 31.2521
rtibia 43.3078
rfoot -48.5434 -25.0163
rtoes -0.221231
lfemur -15.113 5.13019 -11.0959
ltibia 52.2118
lfoot -45.3618 -3.38438
ltoes -6.59665
3937
root 14.1374 30.6434 43.5475 -362.821 -174.638 -354.099
lowerback 7.70902 -2.20042 2.22246
upperback 3.73574 -3.07623 1.5745
thorax -0.481323 -1.65945 0.621409
lowerneck -2.65615 14.0024 -10.8706
upperneck 2.3726 20.5446 -8.55129
head 1.07481 10.3902 -0.670221
rclavicle 3.78685e-014 -5.96354e-015
rhumerus 31.8112 21.4052 -77.6461
rradius 128.401
rwrist 29.5564
rhand -33.1289 -4.92351
rfingers 7.12502
rthumb -6.33864 -34.8087
lclavicle 3.78685e-014 -5.96354e-015
lhumerus 36.1088 -13.7357 80.118
lradius 110.364
lwrist -40.277
lhand -20.8847 -17.2014
lfingers 7.12502
lthumb 5.48563 12.7076
rfemur -9.87813 -0.443305 31.4108
rtibia 43.2366
rfoot -48.704 -25.0089
rtoes -0.851997
lfemur -15.1408 4.73253 -10.9218
ltibia 52.3641
lfoot -45.3542 -3.88655
ltoes -6.63452
3938
root 14.1576 30.6387 43.5198 -362.916 -175.009 -354.177
lowerback 7.88616 -1.99777 1.86768
upperback 3.63872 -2.81296 1.53667
thorax -0.664222 -1.52842 0.76943
lowerneck -2.54974 14.2298 -11.1823
upperneck 2.60712 20.9297 -8.50249
head 1.09879 10.5831 -0.616704
rclavicle -9.44227e-015 1.19271e-014
rhumerus 31.5684 21.192 -77.6154
rradius 128.782
rwrist 29.3696
rhand -33.2323 -4.83558
rfingers 7.12502
rthumb -6.43846 -34.7177
lclavicle -9.44227e-015 1.19271e-014
lhumerus 36.0825 -14.0177 80.3248
lradius 110.031
lwrist -40.377
lhand -21.3095 -17.5884
lfingers 7.12502
lthumb 5.07547 12.3308
rfemur -9.62812 -0.150927 31.3784
rtibia 43.2128
rfoot -48.779 -24.8733
rtoes -0.593709
lfemur -14.9335 5.07165 -10.9087
ltibia 52.5294
lfoot -45.3265 -4.12517
ltoes -6.29368
3939
root 14.1418 30.6415 43.457 -363.05 -174.765 -354.209
lowerback 7.40501 -2.04604 2.19612
upperback 3.71595 -2.86654 1.34897
thorax -0.343822 -1.54467 0.374417
lowerneck -2.75425 14.3628 -11.338
upperneck 3.25559 21.2989 -8.46008
head 1.32263 10.7345 -0.53091
rclavicle -4.1546e-014 -1.98785e-015
rhumerus 31.2795 20.8955 -77.6091
rradius 129.215
rwrist 29.4174
rhand -33.3616 -4.97631
rfingers 7.12502
rthumb -6.56331 -34.8546
lclavicle -4.1546e-014 -1.98785e-015
lhumerus 36.1456 -14.3592 80.2664
lradius 109.647
lwrist -40.3829
lhand -21.6257 -17.6988
lfingers 7.12502
lthumb 4.77015 12.2275
rfemur -9.26593 -0.554724 31.1773
rtibia 43.155
rfoot -49.0918 -24.6128
rtoes 0.454535
lfemur -14.7296 4.63775 -11.1032
ltibia 52.6856
lfoot -45.3537 -3.60699
ltoes -6.1233
